<svg width="155" height="162" viewBox="0 0 155 162" fill="none" xmlns="http://www.w3.org/2000/svg">
<path d="M0 67.23C0 26.4001 31.206 0 65.6968 0C98.5451 0 128.437 23.9404 131.148 61.4909H150.2C153.895 61.4909 155.701 65.9182 153.073 68.4598L126.056 95.4338C124.414 97.0736 121.867 97.0736 120.225 95.4338L93.2079 68.4598C92.6446 67.8869 92.2626 67.1616 92.1093 66.3739C91.9548 65.5864 92.0363 64.771 92.3429 64.029C92.6482 63.2871 93.1653 62.651 93.8308 62.1998C94.495 61.7486 95.2773 61.5022 96.0815 61.4909H114.641C112.096 34.7628 91.4012 16.3976 65.6968 16.3976C38.1868 16.3976 16.4242 37.4684 16.4242 67.23C16.4242 86.4151 32.4384 111.831 65.6968 142.167C70.9525 137.329 75.7982 132.656 80.2328 128.146C78.7874 125.3 78.0283 122.156 78.0149 118.964C78.0149 113.528 80.178 108.315 84.0286 104.471C87.8779 100.627 93.0996 98.4674 98.5451 98.4674C103.991 98.4674 109.212 100.627 113.062 104.471C116.912 108.315 119.075 113.528 119.075 118.964C119.073 122.135 118.331 125.262 116.909 128.095C115.486 130.93 113.423 133.396 110.882 135.297C108.34 137.198 105.39 138.483 102.266 139.049C99.1413 139.615 95.927 139.447 92.8794 138.559C86.474 145.282 79.1646 152.169 71.1167 159.22C67.9961 161.925 63.3158 161.925 60.1953 159.22C20.1202 123.966 0 93.3021 0 67.23Z" fill="#DA1212"/>
</svg>
