<svg width="44" height="47" viewBox="0 0 44 47" fill="none" xmlns="http://www.w3.org/2000/svg">
<path d="M0 19.5958C0 7.69495 8.89762 0 18.7318 0C28.0978 0 36.6207 6.97803 37.3936 17.923H42.8258C43.8793 17.923 44.3945 19.2135 43.6452 19.9543L35.9419 27.8165C35.4736 28.2945 34.7476 28.2945 34.2793 27.8165L26.576 19.9543C26.4154 19.7873 26.3064 19.5759 26.2627 19.3463C26.2187 19.1168 26.2419 18.8791 26.3293 18.6628C26.4164 18.4466 26.5638 18.2612 26.7536 18.1297C26.943 17.9981 27.166 17.9263 27.3953 17.923H32.6871C31.9614 10.1325 26.0608 4.77947 18.7318 4.77947C10.8881 4.77947 4.68296 10.9211 4.68296 19.5958C4.68296 25.1878 9.24902 32.596 18.7318 41.438C20.2304 40.0279 21.612 38.6659 22.8764 37.3514C22.4643 36.5219 22.2479 35.6053 22.2441 34.6749C22.2441 33.0906 22.8608 31.571 23.9587 30.4506C25.0563 29.3302 26.5451 28.7007 28.0978 28.7007C29.6504 28.7007 31.1393 29.3302 32.2368 30.4506C33.3347 31.571 33.9515 33.0906 33.9515 34.6749C33.9508 35.5993 33.7392 36.5106 33.3336 37.3365C32.9281 38.1628 32.3398 38.8815 31.6152 39.4356C30.8905 39.9897 30.0493 40.3642 29.1585 40.5292C28.2677 40.6942 27.3513 40.6453 26.4823 40.3865C24.656 42.3461 22.5719 44.3535 20.2772 46.4087C19.3875 47.1971 18.053 47.1971 17.1632 46.4087C5.7368 36.1328 0 27.1952 0 19.5958Z" fill="#DA1212"/>
</svg>
